<?xml version="1.0" standalone="no"?>
<!DOCTYPE svg PUBLIC "-//W3C//DTD SVG 20010904//EN"
 "http://www.w3.org/TR/2001/REC-SVG-20010904/DTD/svg10.dtd">
<svg version="1.0" xmlns="http://www.w3.org/2000/svg"
 width="512.000000pt" height="512.000000pt" viewBox="0 0 512.000000 512.000000"
 preserveAspectRatio="xMidYMid meet">
<metadata>
Created by potrace 1.11, written by Peter Selinger 2001-2013
</metadata>
<g transform="translate(0.000000,512.000000) scale(0.100000,-0.100000)"
fill="#000000" stroke="none">
<path d="M1747 4312 l-267 -267 0 -943 0 -942 -265 0 -264 0 -3 494 c-3 482
-4 495 -24 523 -45 62 -54 63 -436 63 l-348 0 0 -1321 c0 -1173 2 -1328 16
-1383 47 -182 188 -324 379 -383 57 -17 145 -18 2020 -18 1601 0 1970 3 2015
14 194 47 351 204 401 401 11 43 14 162 14 560 l0 505 -197 3 -198 2 -2 966
-3 966 -37 33 c-20 18 -53 38 -75 44 -53 15 -944 15 -998 0 -21 -6 -54 -26
-72 -44 l-33 -33 0 -496 0 -496 -270 0 -270 0 0 743 0 742 -268 268 -267 267
-140 0 -140 0 -268 -268z m821 -674 l3 -138 -141 0 -140 0 0 140 0 141 138 -3
137 -3 3 -137z m1750 -405 l-3 -138 -137 -3 -138 -3 0 141 0 140 140 0 141 0
-3 -137z m-1750 -135 l3 -138 -141 0 -140 0 0 140 0 141 138 -3 137 -3 3 -137z
m1750 -405 l-3 -138 -135 0 -135 0 -3 138 -3 137 141 0 141 0 -3 -137z m-2020
-135 l3 -138 -141 0 -140 0 0 140 0 141 138 -3 137 -3 3 -137z m1342 -403 l0
-135 -135 0 -135 0 0 135 0 135 135 0 135 0 0 -135z m-2155 -405 l0 -135 -137
-3 -138 -3 0 141 0 141 138 -3 137 -3 0 -135z m1885 -135 l0 -135 -135 0 -135
0 0 135 0 135 135 0 135 0 0 -135z m-2155 -405 l0 -135 -137 -3 -138 -3 0 141
0 141 138 -3 137 -3 0 -135z m1885 -405 l0 -135 -135 0 -135 0 0 135 0 135
135 0 135 0 0 -135z m-1615 -135 l0 -135 -135 0 -135 0 -3 138 -3 138 138 -3
138 -3 0 -135z"/>
</g>
</svg>
